{
	"asset":{
		"generator":"Khronos glTF Blender I/O v4.0.44",
		"version":"2.0"
	},
	"extensionsUsed":[
		"KHR_materials_specular",
		"KHR_materials_ior"
	],
	"scene":0,
	"scenes":[
		{
			"name":"Scene",
			"nodes":[
				0
			]
		}
	],
	"nodes":[
		{
			"mesh":0,
			"name":"Werehog_LOD0",
			"rotation":[
				0.63143390417099,
				0.14334364235401154,
				-0.12027958780527115,
				0.7525134682655334
			],
			"translation":[
				0.009408026933670044,
				0,
				-0.10422863066196442
			]
		}
	],
	"materials":[
		{
			"doubleSided":true,
			"extensions":{
				"KHR_materials_specular":{
					"specularFactor":0
				},
				"KHR_materials_ior":{
					"ior":1.4499999284744263
				}
			},
			"name":"Werehog",
			"pbrMetallicRoughness":{
				"baseColorTexture":{
					"index":0
				},
				"metallicFactor":0,
				"roughnessFactor":0.5
			}
		}
	],
	"meshes":[
		{
			"name":"Werehog_LOD0",
			"primitives":[
				{
					"attributes":{
						"COLOR_0":0,
						"POSITION":1,
						"NORMAL":2,
						"TEXCOORD_0":3
					},
					"indices":4,
					"material":0
				}
			]
		}
	],
	"textures":[
		{
			"sampler":0,
			"source":0
		}
	],
	"images":[
		{
			"mimeType":"image/png",
			"name":"Werehog",
			"uri":"Werehog.png"
		}
	],
	"accessors":[
		{
			"bufferView":0,
			"componentType":5123,
			"count":4321,
			"normalized":true,
			"type":"VEC4"
		},
		{
			"bufferView":1,
			"componentType":5126,
			"count":4321,
			"max":[
				0.5557683706283569,
				0.5539193153381348,
				0.06501094251871109
			],
			"min":[
				-0.5689463019371033,
				-0.2581028640270233,
				-1.2698373794555664
			],
			"type":"VEC3"
		},
		{
			"bufferView":2,
			"componentType":5126,
			"count":4321,
			"type":"VEC3"
		},
		{
			"bufferView":3,
			"componentType":5126,
			"count":4321,
			"type":"VEC2"
		},
		{
			"bufferView":4,
			"componentType":5123,
			"count":16992,
			"type":"SCALAR"
		}
	],
	"bufferViews":[
		{
			"buffer":0,
			"byteLength":34568,
			"byteOffset":0,
			"target":34962
		},
		{
			"buffer":0,
			"byteLength":51852,
			"byteOffset":34568,
			"target":34962
		},
		{
			"buffer":0,
			"byteLength":51852,
			"byteOffset":86420,
			"target":34962
		},
		{
			"buffer":0,
			"byteLength":34568,
			"byteOffset":138272,
			"target":34962
		},
		{
			"buffer":0,
			"byteLength":33984,
			"byteOffset":172840,
			"target":34963
		}
	],
	"samplers":[
		{
			"magFilter":9729,
			"minFilter":9987
		}
	],
	"buffers":[
		{
			"byteLength":206824,
			"uri":"model_Werehog.bin"
		}
	]
}
