{
	"asset":{
		"generator":"Khronos glTF Blender I/O v4.0.44",
		"version":"2.0"
	},
	"scene":0,
	"scenes":[
		{
			"name":"Scene",
			"nodes":[
				0
			]
		}
	],
	"nodes":[
		{
			"mesh":0,
			"name":"V7_U3_P16_N102.001",
			"rotation":[
				0.6755901575088501,
				0,
				0,
				0.7372773885726929
			],
			"translation":[
				-0.013417541980743408,
				-0.10939021408557892,
				-0.0363759808242321
			]
		}
	],
	"materials":[
		{
			"doubleSided":true,
			"name":"Material.001",
			"pbrMetallicRoughness":{
				"baseColorTexture":{
					"index":0
				},
				"metallicFactor":0,
				"roughnessFactor":0.5
			}
		}
	],
	"meshes":[
		{
			"name":"V7_U3_P16_N102.001",
			"primitives":[
				{
					"attributes":{
						"POSITION":0,
						"NORMAL":1,
						"TEXCOORD_0":2
					},
					"indices":3,
					"material":0
				}
			]
		}
	],
	"textures":[
		{
			"sampler":0,
			"source":0
		}
	],
	"images":[
		{
			"mimeType":"image/png",
			"name":"Chip",
			"uri":"Chip.png"
		}
	],
	"accessors":[
		{
			"bufferView":0,
			"componentType":5126,
			"count":1704,
			"max":[
				0.2792340815067291,
				0.23500663042068481,
				-0.30706506967544556
			],
			"min":[
				-0.00288240984082222,
				-0.13509607315063477,
				-0.818811297416687
			],
			"type":"VEC3"
		},
		{
			"bufferView":1,
			"componentType":5126,
			"count":1704,
			"type":"VEC3"
		},
		{
			"bufferView":2,
			"componentType":5126,
			"count":1704,
			"type":"VEC2"
		},
		{
			"bufferView":3,
			"componentType":5123,
			"count":7926,
			"type":"SCALAR"
		}
	],
	"bufferViews":[
		{
			"buffer":0,
			"byteLength":20448,
			"byteOffset":0,
			"target":34962
		},
		{
			"buffer":0,
			"byteLength":20448,
			"byteOffset":20448,
			"target":34962
		},
		{
			"buffer":0,
			"byteLength":13632,
			"byteOffset":40896,
			"target":34962
		},
		{
			"buffer":0,
			"byteLength":15852,
			"byteOffset":54528,
			"target":34963
		}
	],
	"samplers":[
		{
			"magFilter":9729,
			"minFilter":9987
		}
	],
	"buffers":[
		{
			"byteLength":70380,
			"uri":"model_Chip.bin"
		}
	]
}
