{
	"asset":{
		"generator":"Khronos glTF Blender I/O v4.0.44",
		"version":"2.0"
	},
	"extensionsUsed":[
		"KHR_materials_specular",
		"KHR_materials_ior"
	],
	"scene":0,
	"scenes":[
		{
			"name":"Scene",
			"nodes":[
				0
			]
		}
	],
	"nodes":[
		{
			"mesh":0,
			"name":"Cylinder"
		}
	],
	"materials":[
		{
			"extensions":{
				"KHR_materials_specular":{
					"specularTexture":{
						"index":0
					}
				},
				"KHR_materials_ior":{
					"ior":1.4500000476837158
				}
			},
			"name":"Material.003",
			"pbrMetallicRoughness":{
				"baseColorTexture":{
					"index":1
				},
				"metallicFactor":0,
				"roughnessFactor":0.5
			}
		}
	],
	"meshes":[
		{
			"name":"Cylinder.001",
			"primitives":[
				{
					"attributes":{
						"POSITION":0,
						"NORMAL":1,
						"TEXCOORD_0":2
					},
					"indices":3,
					"material":0
				}
			]
		}
	],
	"textures":[
		{
			"sampler":0,
			"source":0
		},
		{
			"sampler":0,
			"source":0
		}
	],
	"images":[
		{
			"mimeType":"image/png",
			"name":"SU_TexStone",
			"uri":"SU_TexStone.png"
		}
	],
	"accessors":[
		{
			"bufferView":0,
			"componentType":5126,
			"count":4663,
			"max":[
				1.5532400608062744,
				4.652432441711426,
				2.4422223567962646
			],
			"min":[
				-1.5532400608062744,
				-3.0365796089172363,
				-1.5649075508117676
			],
			"type":"VEC3"
		},
		{
			"bufferView":1,
			"componentType":5126,
			"count":4663,
			"type":"VEC3"
		},
		{
			"bufferView":2,
			"componentType":5126,
			"count":4663,
			"type":"VEC2"
		},
		{
			"bufferView":3,
			"componentType":5123,
			"count":10320,
			"type":"SCALAR"
		}
	],
	"bufferViews":[
		{
			"buffer":0,
			"byteLength":55956,
			"byteOffset":0,
			"target":34962
		},
		{
			"buffer":0,
			"byteLength":55956,
			"byteOffset":55956,
			"target":34962
		},
		{
			"buffer":0,
			"byteLength":37304,
			"byteOffset":111912,
			"target":34962
		},
		{
			"buffer":0,
			"byteLength":20640,
			"byteOffset":149216,
			"target":34963
		}
	],
	"samplers":[
		{
			"magFilter":9729,
			"minFilter":9987
		}
	],
	"buffers":[
		{
			"byteLength":169856,
			"uri":"Model_Build1.bin"
		}
	]
}
